<?xml version="1.0" encoding="utf-8"?>
<!-- Generator: Adobe Illustrator 26.0.2, SVG Export Plug-In . SVG Version: 6.00 Build 0)  -->
<svg version="1.1" id="Calque_1" xmlns="http://www.w3.org/2000/svg" xmlns:xlink="http://www.w3.org/1999/xlink" x="0px" y="0px"
	 viewBox="0 0 192.7 20.4" style="enable-background:new 0 0 192.7 20.4;" xml:space="preserve">
<style type="text/css">
	.st0{fill:#FFFFFF;}
	.st1{fill:#D84215;}
</style>
<path class="st0" d="M2.3,8.7v0.5c0.3-0.4,0.9-0.7,1.4-0.6c0.6,0,1.1,0.3,1.4,0.8C5.4,8.9,6,8.5,6.6,8.6c1.1,0,1.6,0.7,1.6,2v3.9
	H7.3v-3.8c0-0.3-0.1-0.7-0.2-0.9c-0.4-0.4-1-0.4-1.4,0l0,0c-0.2,0.2-0.3,0.5-0.3,0.9v3.9h-1v-3.8c0-0.8-0.3-1.2-1-1.2
	c-0.5,0-0.9,0.3-1,0.7v4.4h-1v-6H2.3z"/>
<path class="st0" d="M12.7,14.5c-0.1-0.2-0.1-0.4-0.1-0.6c-0.3,0.5-0.8,0.7-1.3,0.7c-0.8,0.1-1.6-0.5-1.7-1.4c0-0.1,0-0.2,0-0.3
	c0-0.5,0.2-1.1,0.6-1.4c0.5-0.4,1.1-0.6,1.7-0.5h0.7v-0.6c0-0.3-0.1-0.5-0.2-0.7c-0.2-0.2-0.4-0.2-0.7-0.2S11.2,9.6,11,9.8
	s-0.3,0.4-0.3,0.6h-1c0-0.3,0.1-0.6,0.3-0.9c0.2-0.3,0.4-0.5,0.7-0.6c0.3-0.2,0.7-0.2,1-0.2c0.5,0,1,0.1,1.3,0.4
	c0.3,0.3,0.5,0.8,0.5,1.3v2.9c0,0.4,0.1,0.8,0.2,1.1v0.1L12.7,14.5z M11.4,13.7c0.2,0,0.5-0.1,0.7-0.2c0.2-0.1,0.4-0.3,0.5-0.5v-1.4
	H12c-0.4,0-0.8,0.1-1.1,0.3s-0.4,0.5-0.4,0.8s0,0.5,0.2,0.7C11,13.7,11.2,13.7,11.4,13.7z"/>
<path class="st0" d="M14.8,11.3c0-0.7,0.1-1.4,0.5-2c0.3-0.5,0.9-0.7,1.4-0.7s1,0.2,1.3,0.7v-3h1v8.3h-0.9V14
	c-0.3,0.5-0.8,0.8-1.3,0.7c-0.6,0-1.1-0.2-1.4-0.7c-0.4-0.6-0.6-1.3-0.5-2L14.8,11.3z M15.7,11.8c0,0.5,0.1,1,0.3,1.4
	c0.2,0.3,0.6,0.5,1,0.5c0.5,0,0.9-0.3,1.1-0.7v-2.9c-0.2-0.4-0.6-0.7-1.1-0.7c-0.4,0-0.7,0.1-0.9,0.5c-0.2,0.4-0.3,0.9-0.3,1.4
	L15.7,11.8z"/>
<path class="st0" d="M22.5,14.6c-0.6,0-1.2-0.2-1.7-0.6c-0.4-0.5-0.6-1.2-0.6-1.9v-0.7c0-0.7,0.2-1.4,0.6-2c0.4-0.5,1-0.8,1.6-0.8
	s1.2,0.2,1.5,0.6c0.4,0.6,0.6,1.3,0.5,2v0.6h-3.3V12c-0.1,0.5,0.1,1,0.4,1.4c0.3,0.3,0.6,0.4,1,0.4c0.3,0,0.5,0,0.7-0.2
	c0.2-0.1,0.4-0.3,0.6-0.5l0.5,0.6C24,14.3,23.2,14.6,22.5,14.6z M22.4,9.4c-0.3,0-0.7,0.1-0.9,0.4c-0.2,0.4-0.3,0.8-0.3,1.3h2.3V11
	c0-0.4-0.1-0.8-0.3-1.2C23,9.5,22.7,9.4,22.4,9.4z"/>
<path class="st0" d="M32.4,12.8l0.9-4.1h0.9l-1.4,5.8H32l-1.1-4.1l-1.1,4.1H29l-1.4-5.8h0.9l0.9,4l1.1-4h0.8L32.4,12.8z"/>
<path class="st0" d="M36.4,7.1c0,0.1,0,0.3-0.1,0.4s-0.2,0.2-0.4,0.2c-0.1,0-0.3-0.1-0.4-0.2c-0.1-0.1-0.1-0.3-0.1-0.4
	s0-0.3,0.1-0.4s0.3-0.2,0.4-0.2c0.2,0,0.3,0,0.4,0.2C36.3,6.8,36.4,7,36.4,7.1z M36.3,14.5h-1V8.7h1V14.5z"/>
<path class="st0" d="M39,7.3v1.4h0.9v0.8H39V13c0,0.2,0,0.4,0.1,0.5s0.2,0.2,0.4,0.2c0.1,0,0.3,0,0.4-0.1v0.8
	c-0.2,0.1-0.4,0.1-0.7,0.1s-0.7-0.1-0.9-0.4C38.1,13.8,38,13.4,38,13V9.4h-0.9V8.7H38V7.3H39z"/>
<path class="st0" d="M42,9.3c0.3-0.4,0.8-0.7,1.4-0.7c1,0,1.6,0.7,1.6,2.1v3.9h-1v-3.8c0-0.3,0-0.7-0.2-1c-0.2-0.2-0.4-0.3-0.7-0.3
	c-0.2,0-0.5,0.1-0.6,0.2c-0.2,0.2-0.3,0.4-0.4,0.6v4.2h-1V6.2h1L42,9.3z"/>
<path class="st0" d="M75.7,11.9c0,0.7-0.1,1.4-0.5,2c-0.3,0.5-0.9,0.7-1.4,0.7c-0.6,0-1.1-0.3-1.4-0.8v0.7h-0.9V6.2h1v3.1
	c0.3-0.5,0.8-0.8,1.3-0.7c0.6,0,1.1,0.2,1.4,0.7c0.4,0.6,0.5,1.3,0.5,2V11.9z M74.7,11.3c0-0.5-0.1-1-0.3-1.5
	c-0.2-0.3-0.6-0.5-0.9-0.4c-0.5,0-0.9,0.3-1.1,0.8V13c0.2,0.5,0.6,0.8,1.1,0.8c0.4,0,0.7-0.1,0.9-0.4c0.2-0.4,0.3-0.9,0.3-1.4V11.3z
	"/>
<path class="st0" d="M78.5,12.9l1.1-4.2h1l-1.9,6.6c-0.1,0.4-0.3,0.8-0.6,1.1c-0.2,0.2-0.6,0.4-0.9,0.4c-0.2,0-0.3,0-0.5-0.1v-0.8
	h0.2c0.2,0,0.5-0.1,0.6-0.2c0.2-0.2,0.3-0.4,0.4-0.7l0.2-0.6l-1.7-5.7h1L78.5,12.9z"/>
<path class="st1" d="M67,6.6c-1-2.6-3.9-4-6.5-3c-1.1,0.4-2,1.1-2.6,2.1c-1.4-2.4-4.4-3.3-6.9-2c-1,0.6-1.8,1.4-2.2,2.5
	c-2.3,5.5,8,11.5,8.9,11.9C58.5,17.8,69.1,12.2,67,6.6z"/>
<path class="st0" d="M169,12.9V13c0,0.1,0,0.2-0.1,0.3c0,0.1-0.1,0.2-0.1,0.3c-0.1,0.1-0.1,0.2-0.2,0.3c-0.1,0.1-0.3,0.2-0.4,0.2
	c-0.2,0.1-0.4,0.1-0.6,0.1c-0.2,0-0.3,0-0.5-0.1c-0.1,0-0.3-0.1-0.4-0.2c-0.1-0.1-0.2-0.2-0.2-0.4c-0.1-0.2-0.1-0.4-0.1-0.5
	c0-0.2,0-0.4,0.1-0.5c0.1-0.4,0.3-0.6,0.7-0.8c0.2-0.1,0.4-0.1,0.6-0.1c0.4,0,0.7,0.1,1,0.3C168.9,12.3,169,12.6,169,12.9z"/>
<g>
	<g>
		<path class="st0" d="M107,10.2h4.2v1.6H107V10.2z"/>
		<path class="st0" d="M119.6,14.8h-2.1v-2.3c0-1.3,0.9-2.3,2.1-2.6V14.8z"/>
		<path class="st0" d="M144.7,14.5c-0.4,0.1-0.8,0.2-1.4,0.3c-0.6,0.1-1.2,0.1-1.8,0.1s-1-0.1-1.5-0.3c-0.4-0.2-0.7-0.4-1-0.7
			c-0.2-0.3-0.4-0.7-0.5-1.1c-0.1-0.4-0.2-0.9-0.2-1.4V7.3h2.1v4c0,0.7,0.1,1.2,0.3,1.5s0.4,0.5,0.9,0.5c0.1,0,0.3,0,0.5,0
			s0.3,0,0.5-0.1V7.3h2.1L144.7,14.5L144.7,14.5z"/>
		<g>
			<path class="st0" d="M177.1,14.5c-0.6-0.3-1.1-0.8-1.4-1.4c-0.3-0.6-0.5-1.3-0.5-2.1s0.2-1.5,0.5-2.1s0.8-1.1,1.4-1.4
				c0.6-0.3,1.3-0.5,2.1-0.5s1.4,0.2,2.1,0.5c0.6,0.3,1.1,0.8,1.4,1.4c0.3,0.6,0.5,1.3,0.5,2.1s-0.2,1.5-0.5,2.1
				c-0.4,0.6-0.8,1.1-1.5,1.4s-1.3,0.5-2.1,0.5C178.4,14.9,177.7,14.8,177.1,14.5z M180.3,12.4c0.3-0.3,0.5-0.8,0.5-1.4
				c0-0.6-0.2-1.1-0.5-1.4c-0.3-0.3-0.7-0.5-1.1-0.5c-0.5,0-0.8,0.2-1.1,0.5s-0.5,0.8-0.5,1.4c0,0.6,0.1,1.1,0.5,1.4
				c0.3,0.3,0.7,0.5,1.1,0.5S180,12.8,180.3,12.4z"/>
		</g>
		<g>
			<path class="st0" d="M168.2,14.5c-0.6-0.3-1.1-0.8-1.4-1.4c-0.3-0.6-0.5-1.3-0.5-2.1s0.2-1.5,0.5-2.1s0.8-1.1,1.4-1.4
				c0.6-0.3,1.3-0.5,2.1-0.5s1.4,0.2,2.1,0.5c0.6,0.3,1.1,0.8,1.4,1.4c0.3,0.6,0.5,1.3,0.5,2.1s-0.2,1.5-0.5,2.1
				c-0.4,0.6-0.8,1.1-1.5,1.4S171,15,170.2,15C169.5,14.9,168.8,14.8,168.2,14.5z M171.4,12.4c0.3-0.3,0.5-0.8,0.5-1.4
				c0-0.6-0.2-1.1-0.5-1.4c-0.3-0.3-0.7-0.5-1.1-0.5c-0.5,0-0.8,0.2-1.1,0.5s-0.5,0.8-0.5,1.4c0,0.6,0.1,1.1,0.5,1.4
				c0.3,0.3,0.7,0.5,1.1,0.5S171.1,12.8,171.4,12.4z"/>
		</g>
		<path class="st0" d="M165.7,13.7c-0.2-0.4-0.4-0.8-0.5-1.2c-0.3,0.3-0.7,0.4-1.1,0.4c-0.5,0-0.8-0.2-1.1-0.5s-0.5-0.8-0.5-1.4
			c0-0.6,0.2-1.1,0.5-1.4s0.7-0.5,1.1-0.5c0.4,0,0.7,0.1,1,0.4c0.1-0.4,0.3-0.8,0.5-1.2c0.2-0.3,0.3-0.5,0.5-0.7l0,0
			c-0.6-0.3-1.3-0.5-2.1-0.5s-1.4,0.2-2.1,0.5c-0.6,0.3-1.1,0.8-1.4,1.4c-0.3,0.6-0.5,1.3-0.5,2.1s0.2,1.5,0.5,2.1s0.8,1.1,1.4,1.4
			c0.6,0.3,1.3,0.5,2,0.5c0.8,0,1.4-0.2,2.1-0.5l0,0C166,14.2,165.8,14,165.7,13.7z"/>
		<path class="st0" d="M91.1,12.7h-3.7V2.2c-1.3,0.4-2.1,1.7-2.1,3.1v9.5h5.8C91.1,14.8,91.1,12.7,91.1,12.7z"/>
		<path class="st0" d="M109.6,2.2v2.1h3.7v10.5h2.1V4.3h1.9c1.2,0,2.1-0.9,2.1-2.1l0,0C119.4,2.2,109.6,2.2,109.6,2.2z"/>
		<path class="st0" d="M136.6,14.5c-0.1,0.1-0.3,0.1-0.5,0.2c-0.2,0.1-0.4,0.1-0.6,0.1s-0.5,0.1-0.7,0.1c-0.3,0-0.5,0-0.8,0
			c-0.7,0-1.3-0.1-1.8-0.3s-0.9-0.5-1.2-0.8s-0.6-0.8-0.7-1.2c-0.2-0.5-0.2-1-0.2-1.5c0-0.7,0.1-1.2,0.3-1.7s0.5-0.9,0.8-1.2
			s0.7-0.6,1.1-0.7c0.4-0.2,0.9-0.3,1.3-0.3c1.1,0,1.9,0.3,2.5,1c0.6,0.6,0.9,1.6,0.9,2.9c0,0.1,0,0.3,0,0.4c0,0.1,0,0.3,0,0.4h-4.8
			c0,0.4,0.3,0.8,0.6,1c0.4,0.3,0.8,0.4,1.4,0.4c0.4,0,0.8,0,1.1-0.1c0.1,0,0.2,0,0.3-0.1L136.6,14.5z M135,10.2
			c0-0.2,0-0.4-0.1-0.5c-0.1-0.2-0.1-0.3-0.2-0.5s-0.2-0.2-0.4-0.3s-0.4-0.1-0.6-0.1c-0.2,0-0.4,0-0.6,0.1c-0.2,0.1-0.3,0.2-0.4,0.3
			c-0.1,0.1-0.2,0.3-0.3,0.5s-0.1,0.4-0.1,0.5H135z"/>
		<path class="st0" d="M105.5,11.2c-0.2-0.2-0.4-0.4-0.7-0.5c-0.3-0.2-0.7-0.3-1.1-0.5c-0.2-0.1-0.4-0.2-0.6-0.2
			c-0.1-0.1-0.3-0.1-0.3-0.2c-0.1-0.1-0.1-0.1-0.2-0.2c0-0.1,0-0.1,0-0.2c0-0.4,0.3-0.6,1-0.6c0.4,0,0.7,0,1,0.1s0.5,0.1,0.7,0.2
			V7.3c-0.2,0-0.4-0.1-0.6-0.1c-0.4-0.1-0.9-0.1-1.3-0.1c-0.9,0-1.6,0.2-2.1,0.6s-0.8,1-0.8,1.7c0,0.4,0.1,0.7,0.2,0.9
			c0.1,0.3,0.3,0.5,0.4,0.7c0.2,0.2,0.4,0.3,0.7,0.5c0.3,0.1,0.6,0.3,0.9,0.4c0.4,0.2,0.7,0.3,0.9,0.4s0.3,0.3,0.3,0.4
			c0,0.2-0.1,0.4-0.2,0.4c-0.2,0.1-0.4,0.1-0.8,0.1s-0.7,0-1.1-0.1c-0.2,0-0.4-0.1-0.6-0.2l-0.9,1.5c0.2,0.1,0.5,0.2,0.9,0.3
			s1,0.2,1.7,0.2c1,0,1.8-0.2,2.4-0.6c0.6-0.4,0.8-0.9,0.8-1.7c0-0.3,0-0.6-0.1-0.8C105.8,11.7,105.6,11.4,105.5,11.2z"/>
		<path class="st0" d="M156,11.2c-0.2-0.2-0.4-0.4-0.7-0.5c-0.3-0.2-0.7-0.3-1.1-0.5c-0.2-0.1-0.4-0.2-0.6-0.2
			c-0.1-0.1-0.3-0.1-0.3-0.2c-0.1-0.1-0.1-0.1-0.2-0.2c0-0.1,0-0.1,0-0.2c0-0.4,0.3-0.6,1-0.6c0.4,0,0.7,0,1,0.1s0.5,0.1,0.7,0.2
			V7.3c-0.2,0-0.4-0.1-0.6-0.1c-0.4-0.1-0.9-0.1-1.3-0.1c-0.9,0-1.6,0.2-2.1,0.6s-0.8,1-0.8,1.7c0,0.4,0.1,0.7,0.2,0.9
			c0.1,0.3,0.3,0.5,0.4,0.7s0.4,0.3,0.7,0.5c0.3,0.1,0.6,0.3,0.9,0.4c0.4,0.2,0.7,0.3,0.9,0.4c0.2,0.1,0.3,0.3,0.3,0.4
			c0,0.2-0.1,0.4-0.2,0.4c-0.2,0.1-0.4,0.1-0.8,0.1c-0.4,0-0.7,0-1.1-0.1c-0.2,0-0.4-0.1-0.6-0.2l-0.9,1.5c0.2,0.1,0.5,0.2,0.9,0.3
			s1,0.2,1.7,0.2c1,0,1.8-0.2,2.4-0.6c0.6-0.4,0.8-0.9,0.8-1.7c0-0.3,0-0.6-0.1-0.8C156.3,11.7,156.1,11.4,156,11.2z"/>
		<path class="st0" d="M124.6,14.9c-0.6,0-1.1-0.1-1.5-0.2c-0.4-0.1-0.7-0.3-0.9-0.5c-0.2-0.2-0.4-0.5-0.5-0.8s-0.1-0.7-0.1-1.1v-8
			h2.1V12c0,0.2,0,0.4,0,0.5s0.1,0.3,0.2,0.4c0.1,0.1,0.2,0.2,0.3,0.3s0.3,0.1,0.6,0.1L124.6,14.9z"/>
		<path class="st0" d="M128.8,14.9c-0.6,0-1.1-0.1-1.5-0.2c-0.4-0.1-0.7-0.3-0.9-0.5c-0.2-0.2-0.4-0.5-0.5-0.8s-0.1-0.7-0.1-1.1v-8
			h2.1V12c0,0.2,0,0.4,0,0.5s0.1,0.3,0.2,0.4c0.1,0.1,0.2,0.2,0.3,0.3s0.3,0.1,0.6,0.1L128.8,14.9z"/>
		<path class="st0" d="M149.8,14.9c-0.6,0-1.1-0.1-1.5-0.2c-0.4-0.1-0.7-0.3-0.9-0.5s-0.4-0.5-0.5-0.8s-0.1-0.7-0.1-1.1v-8h2.1V12
			c0,0.2,0,0.4,0,0.5s0.1,0.3,0.2,0.4c0.1,0.1,0.2,0.2,0.3,0.3s0.3,0.1,0.6,0.1L149.8,14.9z"/>
		<path class="st0" d="M119.7,7.8c0,0.4-0.1,0.7-0.4,0.9S118.8,9,118.5,9s-0.6-0.1-0.8-0.3c-0.3-0.2-0.4-0.5-0.4-0.9
			s0.1-0.7,0.4-0.9c0.3-0.2,0.5-0.3,0.8-0.3s0.6,0.1,0.8,0.3C119.6,7.1,119.7,7.4,119.7,7.8z"/>
		<path class="st0" d="M159.6,13.7c0,0.4-0.1,0.7-0.4,0.9c-0.3,0.2-0.5,0.3-0.8,0.3s-0.6-0.1-0.8-0.3c-0.3-0.2-0.4-0.5-0.4-0.9
			s0.1-0.7,0.4-0.9s0.5-0.3,0.8-0.3s0.6,0.1,0.8,0.3C159.5,13,159.6,13.3,159.6,13.7z"/>
		<path class="st0" d="M191.6,8.9c-0.3-0.6-0.8-1.1-1.4-1.4c-0.6-0.3-1.3-0.5-2.1-0.5s-1.4,0.2-2.1,0.5c-0.6,0.3-1.1,0.8-1.4,1.4
			c-0.3,0.6-0.5,1.2-0.5,2l0,0v7h2.1v-3.4c0.6,0.3,1.2,0.4,1.9,0.4c0.8,0,1.4-0.2,2.1-0.5c0.6-0.3,1.1-0.8,1.5-1.4
			c0.4-0.6,0.5-1.3,0.5-2.1C192.1,10.2,191.9,9.5,191.6,8.9z M189.2,12.4c-0.3,0.3-0.7,0.5-1.2,0.5s-0.8-0.2-1.1-0.5
			s-0.5-0.8-0.5-1.4c0-0.6,0.2-1.1,0.5-1.4s0.7-0.5,1.1-0.5c0.5,0,0.8,0.2,1.1,0.5s0.5,0.8,0.5,1.4
			C189.7,11.6,189.5,12.1,189.2,12.4z"/>
		<path class="st0" d="M98.8,14.5c-0.1,0.1-0.3,0.1-0.5,0.2c-0.2,0.1-0.4,0.1-0.6,0.1s-0.5,0.1-0.7,0.1c-0.3,0-0.5,0-0.8,0
			c-0.7,0-1.3-0.1-1.8-0.3s-0.9-0.5-1.2-0.8c-0.3-0.3-0.6-0.8-0.7-1.2c-0.2-0.5-0.2-1-0.2-1.5c0-0.7,0.1-1.2,0.3-1.7
			c0.2-0.5,0.5-0.9,0.8-1.2s0.7-0.6,1.1-0.7c0.4-0.2,0.9-0.3,1.3-0.3c1.1,0,1.9,0.3,2.5,1s0.9,1.6,0.9,2.9c0,0.1,0,0.3,0,0.4
			c0,0.1,0,0.3,0,0.4h-4.8c0,0.4,0.3,0.8,0.6,1c0.4,0.3,0.8,0.4,1.4,0.4c0.4,0,0.8,0,1.1-0.1c0.1,0,0.2,0,0.3-0.1L98.8,14.5z
			 M97.2,10.3c0-0.2,0-0.4-0.1-0.5C97,9.6,97,9.4,96.8,9.3C96.7,9.2,96.6,9,96.4,9c-0.2-0.1-0.4-0.1-0.6-0.1s-0.4,0-0.6,0.1
			c-0.2,0-0.3,0.1-0.4,0.3c-0.1,0.1-0.2,0.3-0.3,0.5c-0.1,0.2-0.1,0.4-0.1,0.5H97.2z"/>
	</g>
</g>
</svg>
