<?xml version="1.0" encoding="utf-8"?>
<!-- Generator: Adobe Illustrator 26.0.2, SVG Export Plug-In . SVG Version: 6.00 Build 0)  -->
<svg version="1.1" id="Calque_1" xmlns="http://www.w3.org/2000/svg" xmlns:xlink="http://www.w3.org/1999/xlink" x="0px" y="0px"
	 viewBox="0 0 249 24" style="enable-background:new 0 0 249 24;" xml:space="preserve">
<style type="text/css">
	.st0{fill:#5fd5e7;}
	.st1{fill:#1C1B38;}
	.st2{fill:#EE4322;}
</style>
<rect class="st0" width="249" height="24"/>
<path class="st1" d="M29.4,10.3v0.5c0.3-0.4,0.9-0.7,1.4-0.6c0.6,0,1.1,0.3,1.4,0.8c0.3-0.5,0.9-0.9,1.5-0.8c1.1,0,1.6,0.7,1.6,2
	v3.9h-0.9v-3.8c0-0.3-0.1-0.7-0.2-0.9c-0.4-0.4-1-0.4-1.4,0c0,0,0,0,0,0c-0.2,0.2-0.3,0.5-0.3,0.9v3.9h-0.9v-3.8
	c0-0.8-0.3-1.2-1-1.2c-0.5,0-0.9,0.3-1,0.7v4.4h-1v-5.8H29.4z"/>
<path class="st1" d="M39.8,16.1c-0.1-0.2-0.1-0.4-0.1-0.6c-0.3,0.5-0.8,0.7-1.3,0.7c-0.8,0.1-1.6-0.5-1.7-1.4c0-0.1,0-0.2,0-0.3
	c0-0.5,0.2-1.1,0.6-1.4c0.5-0.4,1.1-0.6,1.7-0.5h0.7V12c0-0.3-0.1-0.5-0.2-0.7C39.2,11.1,39,11,38.7,11c-0.3,0-0.5,0.1-0.7,0.3
	c-0.2,0.2-0.3,0.4-0.3,0.6h-1c0-0.3,0.1-0.6,0.3-0.9c0.2-0.3,0.4-0.5,0.7-0.6c0.3-0.2,0.7-0.2,1-0.2c0.5,0,1,0.1,1.3,0.4
	c0.3,0.3,0.5,0.8,0.5,1.3v2.9c0,0.4,0.1,0.8,0.2,1.1v0.1L39.8,16.1z M38.5,15.3c0.2,0,0.5-0.1,0.7-0.2c0.2-0.1,0.4-0.3,0.5-0.5v-1.4
	h-0.5c-0.4,0-0.8,0.1-1.1,0.3c-0.3,0.2-0.4,0.5-0.4,0.8c0,0.3,0,0.5,0.2,0.7C38,15.3,38.3,15.4,38.5,15.3z"/>
<path class="st1" d="M41.8,12.9c0-0.7,0.1-1.4,0.5-2c0.3-0.5,0.9-0.7,1.4-0.7c0.5,0,1,0.2,1.3,0.7v-3h1v8.3h-0.9v-0.6
	c-0.3,0.5-0.8,0.8-1.3,0.7c-0.6,0-1.1-0.2-1.4-0.7c-0.4-0.6-0.6-1.3-0.5-2L41.8,12.9z M42.8,13.5c0,0.5,0.1,1,0.3,1.4
	c0.2,0.3,0.6,0.5,1,0.5c0.5,0,0.9-0.3,1.1-0.7v-2.9C44.9,11.3,44.5,11,44,11c-0.4,0-0.7,0.1-0.9,0.5c-0.2,0.4-0.3,0.9-0.3,1.4
	L42.8,13.5z"/>
<path class="st1" d="M49.6,16.2c-0.6,0-1.2-0.2-1.7-0.6c-0.4-0.5-0.6-1.2-0.6-1.9V13c0-0.7,0.2-1.4,0.6-2c0.4-0.5,1-0.8,1.6-0.8
	c0.6,0,1.2,0.2,1.5,0.6c0.4,0.6,0.6,1.3,0.5,2v0.6h-3.3v0.1c-0.1,0.5,0.1,1,0.4,1.4c0.3,0.3,0.6,0.4,1,0.4c0.3,0,0.5,0,0.7-0.2
	c0.2-0.1,0.4-0.3,0.6-0.5l0.5,0.6C51,15.9,50.3,16.3,49.6,16.2z M49.5,11c-0.3,0-0.7,0.1-0.9,0.4c-0.2,0.4-0.3,0.8-0.3,1.3h2.3v-0.1
	c0-0.4-0.1-0.8-0.3-1.2C50.1,11.1,49.8,11,49.5,11z"/>
<path class="st1" d="M59.5,14.4l0.9-4.1h0.9l-1.4,5.8h-0.8L58,11.9l-1.1,4.1h-0.8l-1.4-5.8h0.9l0.9,4l1.1-4h0.8L59.5,14.4z"/>
<path class="st1" d="M63.4,8.7c0,0.1,0,0.3-0.1,0.4c-0.1,0.1-0.2,0.2-0.4,0.2c-0.1,0-0.3-0.1-0.4-0.2c-0.1-0.1-0.1-0.3-0.1-0.4
	c0-0.1,0-0.3,0.1-0.4c0.1-0.1,0.3-0.2,0.4-0.2c0.2,0,0.3,0,0.4,0.2C63.4,8.5,63.4,8.6,63.4,8.7z M63.3,16.1h-1v-5.8h1V16.1z"/>
<path class="st1" d="M66.1,8.9v1.4H67V11h-0.9v3.6c0,0.2,0,0.4,0.1,0.5c0.1,0.1,0.2,0.2,0.4,0.2c0.1,0,0.3,0,0.4-0.1v0.8
	c-0.2,0.1-0.4,0.1-0.7,0.1c-0.3,0-0.7-0.1-0.9-0.4c-0.2-0.3-0.3-0.7-0.3-1.1v-3.6h-0.9v-0.8h0.9V8.9H66.1z"/>
<path class="st1" d="M69.1,10.9c0.3-0.4,0.8-0.7,1.4-0.7c1,0,1.6,0.7,1.6,2.1v3.9h-1v-3.8c0-0.3,0-0.7-0.2-1
	c-0.2-0.2-0.4-0.3-0.7-0.3c-0.2,0-0.5,0.1-0.6,0.2c-0.2,0.2-0.3,0.4-0.4,0.6v4.2h-1V7.8h1L69.1,10.9z"/>
<path class="st1" d="M102.8,13.5c0,0.7-0.1,1.4-0.5,2c-0.3,0.5-0.9,0.7-1.4,0.7c-0.6,0-1.1-0.3-1.4-0.8V16h-0.9V7.8h1v3.1
	c0.3-0.5,0.8-0.8,1.3-0.7c0.6,0,1.1,0.2,1.4,0.7c0.4,0.6,0.5,1.3,0.5,2L102.8,13.5z M101.8,12.9c0-0.5-0.1-1-0.3-1.5
	c-0.2-0.3-0.6-0.5-0.9-0.4c-0.5,0-0.9,0.3-1.1,0.8v2.8c0.2,0.5,0.6,0.8,1.1,0.8c0.4,0,0.7-0.1,0.9-0.4c0.2-0.4,0.3-0.9,0.3-1.4V12.9
	z"/>
<path class="st1" d="M105.6,14.5l1.1-4.2h1l-1.9,6.6c-0.1,0.4-0.3,0.8-0.6,1.1c-0.2,0.2-0.6,0.4-0.9,0.4c-0.2,0-0.3,0-0.5-0.1v-0.8
	h0.2c0.2,0,0.5-0.1,0.6-0.2c0.2-0.2,0.3-0.4,0.4-0.7l0.2-0.6l-1.7-5.7h1L105.6,14.5z"/>
<path class="st2" d="M94.1,8.2c-1-2.6-3.9-4-6.5-3c-1.1,0.4-2,1.1-2.6,2.1c-1.4-2.4-4.4-3.3-6.9-2c-1,0.6-1.8,1.4-2.2,2.5
	c-2.3,5.5,8,11.5,8.9,11.9C85.6,19.4,96.2,13.9,94.1,8.2z"/>
<g>
	<g>
		<path class="st1" d="M135.9,12h4.3v1.6h-4.3V12z"/>
		<path class="st1" d="M149,16.7h-2.2v-2.4c0-1.3,0.9-2.4,2.2-2.7V16.7z"/>
		<path class="st1" d="M175.1,16.5c-0.4,0.1-0.8,0.2-1.4,0.3c-0.6,0.1-1.2,0.1-1.8,0.1c-0.7,0-1.1-0.1-1.5-0.3
			c-0.4-0.2-0.8-0.4-1-0.7c-0.3-0.3-0.4-0.7-0.5-1.1s-0.2-0.9-0.2-1.5V8.9h2.2V13c0,0.7,0.1,1.2,0.3,1.5c0.2,0.3,0.4,0.5,0.9,0.5
			c0.2,0,0.3,0,0.5,0c0.2,0,0.3,0,0.5-0.1v-6h2.2L175.1,16.5L175.1,16.5z"/>
		<g>
			<path class="st1" d="M208.6,16.4c-0.6-0.3-1.1-0.8-1.5-1.4c-0.4-0.6-0.5-1.3-0.5-2.2c0-0.8,0.2-1.5,0.5-2.2s0.9-1.1,1.5-1.4
				c0.6-0.3,1.3-0.5,2.1-0.5c0.8,0,1.5,0.2,2.1,0.5c0.6,0.3,1.1,0.8,1.5,1.4c0.4,0.6,0.5,1.3,0.5,2.2s-0.2,1.5-0.6,2.2
				c-0.4,0.6-0.9,1.1-1.5,1.4c-0.6,0.3-1.3,0.5-2.1,0.5C209.9,16.9,209.2,16.7,208.6,16.4z M211.9,14.3c0.3-0.3,0.5-0.8,0.5-1.5
				c0-0.6-0.2-1.1-0.5-1.5c-0.3-0.3-0.7-0.5-1.2-0.5c-0.5,0-0.9,0.2-1.2,0.5c-0.3,0.3-0.5,0.8-0.5,1.5c0,0.6,0.2,1.1,0.5,1.5
				c0.3,0.3,0.7,0.5,1.2,0.5C211.2,14.8,211.6,14.6,211.9,14.3z"/>
		</g>
		<g>
			<path class="st1" d="M199.3,16.4c-0.6-0.3-1.1-0.8-1.5-1.4c-0.4-0.6-0.5-1.3-0.5-2.2c0-0.8,0.2-1.5,0.5-2.2
				c0.4-0.6,0.9-1.1,1.5-1.4c0.6-0.3,1.3-0.5,2.1-0.5c0.8,0,1.5,0.2,2.1,0.5c0.6,0.3,1.1,0.8,1.5,1.4c0.4,0.6,0.5,1.3,0.5,2.2
				s-0.2,1.5-0.6,2.2c-0.4,0.6-0.9,1.1-1.5,1.4c-0.6,0.3-1.3,0.5-2.1,0.5C200.7,16.9,200,16.7,199.3,16.4z M202.7,14.3
				c0.3-0.3,0.5-0.8,0.5-1.5c0-0.6-0.2-1.1-0.5-1.5c-0.3-0.3-0.7-0.5-1.2-0.5c-0.5,0-0.9,0.2-1.2,0.5c-0.3,0.3-0.5,0.8-0.5,1.5
				c0,0.6,0.2,1.1,0.5,1.5c0.3,0.3,0.7,0.5,1.2,0.5C201.9,14.8,202.3,14.6,202.7,14.3z"/>
		</g>
		<path class="st1" d="M196.7,15.6c-0.2-0.4-0.4-0.8-0.5-1.3c-0.3,0.3-0.7,0.4-1.1,0.4c-0.5,0-0.9-0.2-1.2-0.5
			c-0.3-0.3-0.5-0.8-0.5-1.5c0-0.6,0.2-1.1,0.5-1.5c0.3-0.3,0.7-0.5,1.2-0.5c0.4,0,0.8,0.1,1.1,0.4c0.1-0.4,0.3-0.9,0.5-1.2
			c0.2-0.3,0.3-0.5,0.5-0.8c0,0,0,0,0,0c-0.6-0.3-1.3-0.5-2.1-0.5c-0.8,0-1.5,0.2-2.1,0.5c-0.6,0.3-1.1,0.8-1.5,1.4
			c-0.4,0.6-0.5,1.3-0.5,2.2c0,0.8,0.2,1.5,0.5,2.2c0.4,0.6,0.9,1.1,1.5,1.4c0.6,0.3,1.3,0.5,2.1,0.5c0.8,0,1.5-0.2,2.1-0.5
			c0,0,0,0,0,0C197.1,16.2,196.9,15.9,196.7,15.6z"/>
		<path class="st1" d="M119.5,14.6h-3.8V3.7c-1.4,0.4-2.2,1.8-2.2,3.2v9.9h6V14.6z"/>
		<path class="st1" d="M138.7,3.7v2.2h3.8v10.9h2.2V5.9h2c1.2,0,2.2-1,2.2-2.2l0,0H138.7z"/>
		<path class="st1" d="M166.6,16.4c-0.1,0.1-0.3,0.1-0.5,0.2c-0.2,0.1-0.4,0.1-0.7,0.2c-0.2,0-0.5,0.1-0.8,0.1c-0.3,0-0.5,0-0.8,0
			c-0.7,0-1.3-0.1-1.8-0.3c-0.5-0.2-0.9-0.5-1.3-0.8c-0.3-0.4-0.6-0.8-0.8-1.3c-0.2-0.5-0.2-1-0.2-1.6c0-0.7,0.1-1.3,0.3-1.8
			c0.2-0.5,0.5-0.9,0.8-1.3c0.3-0.3,0.7-0.6,1.2-0.8c0.4-0.2,0.9-0.3,1.4-0.3c1.1,0,2,0.3,2.6,1c0.6,0.7,1,1.7,1,3
			c0,0.1,0,0.3,0,0.4c0,0.2,0,0.3,0,0.4h-5c0,0.5,0.3,0.8,0.6,1.1c0.4,0.3,0.9,0.4,1.5,0.4c0.4,0,0.8,0,1.2-0.1c0.1,0,0.2,0,0.3-0.1
			L166.6,16.4z M165,12c0-0.2,0-0.4-0.1-0.5s-0.1-0.3-0.3-0.5c-0.1-0.1-0.3-0.3-0.4-0.3c-0.2-0.1-0.4-0.1-0.6-0.1
			c-0.2,0-0.5,0-0.6,0.1c-0.2,0.1-0.3,0.2-0.4,0.3c-0.1,0.1-0.2,0.3-0.3,0.5c-0.1,0.2-0.1,0.4-0.1,0.6H165z"/>
		<path class="st1" d="M134.4,13.1c-0.2-0.2-0.4-0.4-0.7-0.6c-0.3-0.2-0.7-0.3-1.2-0.5c-0.2-0.1-0.4-0.2-0.6-0.2
			c-0.2-0.1-0.3-0.1-0.4-0.2c-0.1-0.1-0.1-0.1-0.2-0.2c0-0.1,0-0.1,0-0.2c0-0.4,0.3-0.6,1-0.6c0.4,0,0.7,0,1,0.1
			c0.3,0.1,0.5,0.1,0.8,0.2V9c-0.2,0-0.4-0.1-0.6-0.1c-0.4-0.1-0.9-0.1-1.4-0.1c-0.9,0-1.7,0.2-2.2,0.6c-0.5,0.4-0.8,1-0.8,1.7
			c0,0.4,0.1,0.7,0.2,1c0.1,0.3,0.3,0.5,0.5,0.7c0.2,0.2,0.4,0.4,0.7,0.5c0.3,0.1,0.6,0.3,0.9,0.4c0.4,0.2,0.8,0.3,1,0.4
			c0.2,0.1,0.3,0.3,0.3,0.5c0,0.2-0.1,0.4-0.3,0.5c-0.2,0.1-0.5,0.1-0.9,0.1c-0.4,0-0.8,0-1.2-0.1c-0.2,0-0.4-0.1-0.6-0.2l-0.9,1.6
			c0.2,0.1,0.5,0.2,0.9,0.3c0.5,0.1,1,0.2,1.7,0.2c1,0,1.9-0.2,2.4-0.6c0.6-0.4,0.9-1,0.9-1.7c0-0.3,0-0.6-0.1-0.9
			C134.7,13.5,134.6,13.3,134.4,13.1z"/>
		<path class="st1" d="M186.7,13.1c-0.2-0.2-0.4-0.4-0.7-0.6c-0.3-0.2-0.7-0.3-1.2-0.5c-0.2-0.1-0.4-0.2-0.6-0.2s-0.3-0.1-0.4-0.2
			c-0.1-0.1-0.1-0.1-0.2-0.2c0-0.1,0-0.1,0-0.2c0-0.4,0.3-0.6,1-0.6c0.4,0,0.7,0,1,0.1c0.3,0.1,0.5,0.1,0.8,0.2V9
			c-0.2,0-0.4-0.1-0.6-0.1c-0.4-0.1-0.9-0.1-1.4-0.1c-0.9,0-1.7,0.2-2.2,0.6c-0.5,0.4-0.8,1-0.8,1.7c0,0.4,0.1,0.7,0.2,1
			c0.1,0.3,0.3,0.5,0.5,0.7s0.4,0.4,0.7,0.5c0.3,0.1,0.6,0.3,0.9,0.4c0.4,0.2,0.8,0.3,1,0.4c0.2,0.1,0.3,0.3,0.3,0.5
			c0,0.2-0.1,0.4-0.3,0.5c-0.2,0.1-0.5,0.1-0.9,0.1c-0.4,0-0.8,0-1.2-0.1c-0.2,0-0.4-0.1-0.6-0.2l-0.9,1.6c0.2,0.1,0.5,0.2,0.9,0.3
			c0.5,0.1,1,0.2,1.7,0.2c1,0,1.9-0.2,2.4-0.6c0.6-0.4,0.9-1,0.9-1.7c0-0.3,0-0.6-0.1-0.9C187,13.5,186.9,13.3,186.7,13.1z"/>
		<path class="st1" d="M154.2,16.9c-0.6,0-1.1-0.1-1.5-0.2c-0.4-0.1-0.7-0.3-0.9-0.5c-0.2-0.2-0.4-0.5-0.5-0.8
			c-0.1-0.3-0.1-0.7-0.1-1.1V5.9h2.2v7.9c0,0.2,0,0.4,0,0.5c0,0.2,0.1,0.3,0.2,0.4c0.1,0.1,0.2,0.2,0.4,0.3c0.2,0.1,0.4,0.1,0.6,0.1
			L154.2,16.9z"/>
		<path class="st1" d="M158.6,16.9c-0.6,0-1.1-0.1-1.5-0.2c-0.4-0.1-0.7-0.3-0.9-0.5c-0.2-0.2-0.4-0.5-0.5-0.8
			c-0.1-0.3-0.1-0.7-0.1-1.1V5.9h2.2v7.9c0,0.2,0,0.4,0,0.5s0.1,0.3,0.2,0.4c0.1,0.1,0.2,0.2,0.4,0.3c0.2,0.1,0.4,0.1,0.6,0.1
			L158.6,16.9z"/>
		<path class="st1" d="M180.3,16.9c-0.6,0-1.1-0.1-1.5-0.2c-0.4-0.1-0.7-0.3-0.9-0.5c-0.2-0.2-0.4-0.5-0.5-0.8s-0.1-0.7-0.1-1.1V5.9
			h2.2v7.9c0,0.2,0,0.4,0,0.5s0.1,0.3,0.2,0.4c0.1,0.1,0.2,0.2,0.4,0.3c0.2,0.1,0.4,0.1,0.6,0.1L180.3,16.9z"/>
		<path class="st1" d="M149.2,9.5c0,0.4-0.1,0.7-0.4,0.9s-0.6,0.3-0.9,0.3c-0.3,0-0.6-0.1-0.9-0.3c-0.3-0.2-0.4-0.5-0.4-0.9
			s0.1-0.7,0.4-0.9c0.3-0.2,0.6-0.3,0.9-0.3c0.3,0,0.6,0.1,0.9,0.3C149,8.8,149.2,9.1,149.2,9.5z"/>
		<path class="st1" d="M190.4,15.6c0,0.4-0.1,0.7-0.4,0.9s-0.6,0.3-0.9,0.3c-0.3,0-0.6-0.1-0.9-0.3c-0.3-0.2-0.4-0.5-0.4-0.9
			s0.1-0.7,0.4-0.9c0.3-0.2,0.6-0.3,0.9-0.3c0.3,0,0.6,0.1,0.9,0.3C190.3,14.9,190.4,15.2,190.4,15.6z"/>
		<path class="st1" d="M223.6,10.7c-0.4-0.6-0.9-1.1-1.5-1.4c-0.6-0.3-1.3-0.5-2.1-0.5c-0.8,0-1.5,0.2-2.1,0.5
			c-0.6,0.3-1.1,0.8-1.5,1.4c-0.4,0.6-0.5,1.3-0.5,2.1l0,0V20h2.2v-3.5c0.6,0.3,1.2,0.4,2,0.4c0.8,0,1.5-0.2,2.1-0.5
			c0.6-0.3,1.1-0.8,1.5-1.4c0.4-0.6,0.6-1.3,0.6-2.2S223.9,11.3,223.6,10.7z M221.1,14.3c-0.3,0.3-0.7,0.5-1.2,0.5s-0.9-0.2-1.2-0.5
			c-0.3-0.3-0.5-0.8-0.5-1.5c0-0.6,0.2-1.1,0.5-1.5c0.3-0.3,0.7-0.5,1.2-0.5c0.5,0,0.9,0.2,1.2,0.5c0.3,0.3,0.5,0.8,0.5,1.5
			C221.6,13.5,221.5,14,221.1,14.3z"/>
		<path class="st1" d="M127.4,16.4c-0.1,0.1-0.3,0.1-0.5,0.2c-0.2,0.1-0.4,0.1-0.7,0.2c-0.2,0-0.5,0.1-0.8,0.1c-0.3,0-0.5,0-0.8,0
			c-0.7,0-1.3-0.1-1.8-0.3s-0.9-0.5-1.3-0.8c-0.3-0.4-0.6-0.8-0.8-1.3c-0.2-0.5-0.2-1-0.2-1.6c0-0.7,0.1-1.3,0.3-1.8
			c0.2-0.5,0.5-0.9,0.8-1.3c0.3-0.3,0.7-0.6,1.2-0.8c0.4-0.2,0.9-0.3,1.4-0.3c1.1,0,2,0.3,2.6,1c0.6,0.7,1,1.7,1,3
			c0,0.1,0,0.3,0,0.4c0,0.2,0,0.3,0,0.4h-5c0,0.5,0.3,0.8,0.6,1.1c0.4,0.3,0.9,0.4,1.5,0.4c0.4,0,0.8,0,1.2-0.1c0.1,0,0.2,0,0.3-0.1
			L127.4,16.4z M125.8,12.1c0-0.2,0-0.4-0.1-0.5c-0.1-0.2-0.1-0.3-0.3-0.5c-0.1-0.1-0.3-0.3-0.4-0.3c-0.2-0.1-0.4-0.1-0.6-0.1
			c-0.2,0-0.5,0-0.6,0.1c-0.2,0.1-0.3,0.2-0.4,0.3s-0.2,0.3-0.3,0.5c-0.1,0.2-0.1,0.4-0.1,0.6H125.8z"/>
	</g>
</g>
</svg>
